<svg width="1200" height="630" viewBox="0 0 1200 630" fill="none" xmlns="http://www.w3.org/2000/svg">
  <defs>
    <linearGradient id="bg" x1="76" y1="44" x2="1132" y2="614" gradientUnits="userSpaceOnUse">
      <stop offset="0" stop-color="#040606" />
      <stop offset="0.48" stop-color="#060F0D" />
      <stop offset="1" stop-color="#041716" />
    </linearGradient>
    <linearGradient id="line" x1="0" y1="315" x2="1200" y2="315" gradientUnits="userSpaceOnUse">
      <stop offset="0" stop-color="#0D2D25" stop-opacity="0" />
      <stop offset="0.5" stop-color="#64F8D2" stop-opacity="0.5" />
      <stop offset="1" stop-color="#0D2D25" stop-opacity="0" />
    </linearGradient>
    <linearGradient id="markStroke" x1="12" y1="16" x2="88" y2="88" gradientUnits="userSpaceOnUse">
      <stop offset="0" stop-color="#A8FFE4" />
      <stop offset="0.52" stop-color="#4CF0C6" />
      <stop offset="1" stop-color="#14B88C" />
    </linearGradient>
    <radialGradient id="markAura" cx="0" cy="0" r="1" gradientUnits="userSpaceOnUse" gradientTransform="translate(50 62) rotate(90) scale(30 28)">
      <stop offset="0" stop-color="#74FAD3" stop-opacity="0.95" />
      <stop offset="0.72" stop-color="#2ECFA8" stop-opacity="0.34" />
      <stop offset="1" stop-color="#0A2A21" stop-opacity="0" />
    </radialGradient>
    <filter id="markGlow" x="-60%" y="-60%" width="220%" height="220%">
      <feDropShadow dx="0" dy="0" stdDeviation="1.8" flood-color="#6AFFDC" flood-opacity="0.95" />
      <feDropShadow dx="0" dy="0" stdDeviation="4.8" flood-color="#20C99A" flood-opacity="0.8" />
      <feDropShadow dx="0" dy="0" stdDeviation="8" flood-color="#14906E" flood-opacity="0.45" />
    </filter>
    <filter id="wordGlow" x="-40%" y="-60%" width="220%" height="240%">
      <feDropShadow dx="0" dy="0" stdDeviation="9" flood-color="#63F9D3" flood-opacity="0.3" />
      <feDropShadow dx="0" dy="0" stdDeviation="16" flood-color="#22C79A" flood-opacity="0.22" />
    </filter>
  </defs>

  <rect width="1200" height="630" rx="34" fill="url(#bg)" />
  <rect x="46" y="46" width="1108" height="538" rx="26" stroke="#1A4339" stroke-opacity="0.9" />

  <g opacity="0.36">
    <path d="M80 116H1120" stroke="url(#line)" stroke-width="1" />
    <path d="M80 514H1120" stroke="url(#line)" stroke-width="1" />
    <path d="M600 88V542" stroke="#174137" stroke-opacity="0.55" stroke-width="1" />
  </g>

  <g transform="translate(88 90) scale(4.92)">
    <path d="M10 84L29 50L37 58L50 18L61 42L69 34L90 84Z" fill="url(#markAura)" opacity="0.74" />

    <g fill="none" stroke="url(#markStroke)" stroke-linecap="round" stroke-linejoin="round" filter="url(#markGlow)">
      <path d="M10 84L29 50L37 58L50 18L61 42L69 34L90 84Z" stroke-width="3.9" opacity="0.96" />
      <path d="M20 84L33 61L39 67L50 40L58 54L65 48L80 84Z" stroke-width="3" opacity="0.72" />
    </g>

  </g>

  <g transform="translate(550 166)">
    <text x="0" y="100" fill="#ECFFF9" font-family="'Avenir Next', 'Segoe UI', 'Helvetica Neue', Arial, sans-serif" font-size="90" font-weight="650" letter-spacing="0.11em" filter="url(#wordGlow)">LC TRACKER</text>
    <text x="2" y="178" fill="#96F6D8" font-family="'Avenir Next', 'Segoe UI', 'Helvetica Neue', Arial, sans-serif" font-size="27" font-weight="500" letter-spacing="0.16em">LEETCODE TRACKER FOR SPACED REPETITION</text>
    <text x="2" y="240" fill="#B0CBC3" font-family="'Avenir Next', 'Segoe UI', 'Helvetica Neue', Arial, sans-serif" font-size="23" font-weight="400" letter-spacing="0.03em">Progress analytics, weak-point review, and interview prep.</text>

    <rect x="0" y="286" width="525" height="1" fill="#2A5F52" fill-opacity="0.88" />
    <text x="2" y="330" fill="#78C6B0" font-family="'SFMono-Regular', Menlo, Consolas, monospace" font-size="18" font-weight="500" letter-spacing="0.16em">TRACK. REVIEW. RETAIN.</text>
  </g>
</svg>
