<svg width="1200" height="630" viewBox="0 0 1200 630" fill="none" xmlns="http://www.w3.org/2000/svg">
  <defs>
    <linearGradient id="bg" x1="0" y1="0" x2="1200" y2="630" gradientUnits="userSpaceOnUse">
      <stop stop-color="#050505" />
      <stop offset="0.55" stop-color="#09090b" />
      <stop offset="1" stop-color="#03130f" />
    </linearGradient>
    <linearGradient id="accent" x1="280" y1="130" x2="960" y2="500" gradientUnits="userSpaceOnUse">
      <stop stop-color="#6ee7b7" />
      <stop offset="0.5" stop-color="#10b981" />
      <stop offset="1" stop-color="#0f766e" />
    </linearGradient>
    <filter id="glow" x="-20%" y="-20%" width="140%" height="140%">
      <feDropShadow dx="0" dy="0" stdDeviation="18" flood-color="#10b981" flood-opacity="0.35" />
    </filter>
  </defs>
  <rect width="1200" height="630" rx="36" fill="url(#bg)" />
  <circle cx="990" cy="110" r="180" fill="#10b981" fill-opacity="0.08" />
  <circle cx="150" cy="540" r="220" fill="#10b981" fill-opacity="0.06" />
  <path d="M145 435L290 220L350 290L452 120L548 255L624 175L716 320L836 190L1020 435" stroke="url(#accent)" stroke-width="16" stroke-linecap="round" stroke-linejoin="round" filter="url(#glow)" />
  <path d="M210 405L306 285L358 330L444 195L510 290L594 230L657 345L760 255L910 405" stroke="#e5e7eb" stroke-opacity="0.22" stroke-width="6" stroke-linecap="round" stroke-linejoin="round" />
  <text x="120" y="160" fill="#f8fafc" font-size="76" font-family="Inter, ui-sans-serif, system-ui, sans-serif" font-weight="800" letter-spacing="-2">LC Tracker</text>
  <text x="120" y="226" fill="#34d399" font-size="34" font-family="Inter, ui-sans-serif, system-ui, sans-serif" font-weight="600" letter-spacing="0.5">LeetCode tracker for spaced repetition</text>
  <text x="120" y="278" fill="#d4d4d8" font-size="26" font-family="Inter, ui-sans-serif, system-ui, sans-serif" font-weight="500">Progress analytics, weak-point review, and interview prep</text>
  <g transform="translate(120 360)">
    <rect x="0" y="0" width="320" height="64" rx="18" fill="#0a0a0c" stroke="#10b981" stroke-opacity="0.35" />
    <text x="26" y="41" fill="#6ee7b7" font-size="24" font-family="Inter, ui-sans-serif, system-ui, sans-serif" font-weight="700">Track. Review. Retain.</text>
  </g>
</svg>
